<svg xmlns="http://www.w3.org/2000/svg" xmlns:xlink="http://www.w3.org/1999/xlink" width="90" zoomAndPan="magnify" viewBox="0 0 67.5 30.000001" height="40" preserveAspectRatio="xMidYMid meet" version="1.0"><defs><clipPath id="9c9075438f"><path d="M 0.847656 7.257812 L 22 7.257812 L 22 21.738281 L 0.847656 21.738281 Z M 0.847656 7.257812 " clip-rule="nonzero"/></clipPath><clipPath id="9e7e37dd5e"><path d="M 53 7.257812 L 60 7.257812 L 60 21 L 53 21 Z M 53 7.257812 " clip-rule="nonzero"/></clipPath><clipPath id="186cc4ab94"><path d="M 35.355469 10.527344 L 43.605469 10.527344 L 43.605469 26.332031 L 35.355469 26.332031 Z M 35.355469 10.527344 " clip-rule="nonzero"/></clipPath><clipPath id="be6c12dd39"><path d="M 38.007812 11.25 C 38.226562 13.644531 37.71875 13.863281 37.425781 13.863281 C 37.066406 13.863281 36.554688 13.5 36.410156 13.136719 C 36.265625 12.628906 36.847656 10.960938 37.355469 10.742188 C 37.71875 10.597656 38.445312 10.886719 38.734375 11.25 C 39.167969 11.683594 39.316406 12.847656 39.242188 13.574219 C 39.167969 14.152344 38.953125 14.953125 38.589844 15.167969 C 38.296875 15.316406 37.789062 15.242188 37.425781 15.023438 C 36.917969 14.660156 36.046875 13.425781 36.046875 12.773438 C 36.046875 12.265625 36.410156 11.46875 36.773438 11.324219 C 37.136719 11.175781 37.933594 11.394531 38.296875 11.902344 C 39.097656 12.992188 39.460938 18.289062 38.953125 19.378906 C 38.734375 19.816406 38.296875 20.03125 37.933594 20.03125 C 37.574219 20.03125 36.992188 19.816406 36.703125 19.378906 C 36.195312 18.652344 36.046875 15.386719 36.410156 15.167969 C 36.628906 15.023438 37.136719 15.894531 37.5 15.894531 C 37.863281 15.894531 38.445312 15.167969 38.734375 15.316406 C 39.167969 15.605469 38.953125 17.855469 38.804688 18.796875 C 38.734375 19.523438 38.734375 20.324219 38.296875 20.683594 C 37.933594 20.976562 36.917969 21.046875 36.484375 20.832031 C 36.046875 20.683594 35.683594 20.175781 35.613281 19.742188 C 35.539062 19.304688 35.757812 18.433594 36.046875 18.144531 C 36.339844 17.855469 36.773438 17.78125 37.210938 17.78125 C 37.933594 17.78125 39.242188 18 39.824219 18.507812 C 40.332031 18.945312 40.839844 19.742188 40.695312 20.25 C 40.476562 20.902344 38.445312 22.210938 37.933594 21.992188 C 37.5 21.847656 37.210938 20.25 37.5 19.886719 C 37.789062 19.597656 39.460938 19.960938 39.460938 19.960938 C 39.460938 19.960938 38.515625 20.105469 38.296875 19.816406 C 37.644531 19.015625 38.082031 14.007812 38.878906 12.628906 C 39.386719 11.832031 40.402344 11.324219 40.984375 11.324219 C 41.417969 11.324219 41.855469 11.683594 42.144531 12.121094 C 42.582031 12.847656 42.945312 14.804688 42.652344 15.53125 C 42.433594 16.039062 41.925781 16.546875 41.492188 16.546875 C 41.054688 16.546875 40.332031 16.113281 40.039062 15.605469 C 39.675781 14.953125 39.75 13.210938 40.039062 12.484375 C 40.257812 11.976562 40.765625 11.46875 41.203125 11.46875 C 41.636719 11.46875 42.433594 11.976562 42.652344 12.484375 C 42.945312 13.136719 42.796875 14.734375 42.363281 15.386719 C 42 15.894531 41.203125 16.402344 40.765625 16.402344 C 40.402344 16.402344 40.039062 16.039062 39.824219 15.605469 C 39.460938 14.878906 39.53125 12.773438 39.824219 11.976562 C 39.96875 11.539062 40.257812 11.25 40.621094 11.105469 C 41.054688 10.960938 41.925781 10.960938 42.363281 11.25 C 42.726562 11.46875 42.945312 11.832031 43.089844 12.484375 C 43.597656 14.445312 43.453125 23.445312 42.582031 25.257812 C 42.289062 25.910156 41.78125 26.273438 41.347656 26.273438 C 40.910156 26.273438 39.96875 25.332031 39.96875 24.894531 C 39.96875 24.460938 40.546875 23.804688 40.910156 23.660156 C 41.273438 23.515625 41.855469 23.734375 42.144531 23.953125 C 42.433594 24.167969 42.652344 24.75 42.582031 25.113281 C 42.507812 25.546875 41.925781 26.273438 41.492188 26.273438 C 41.054688 26.273438 40.332031 25.765625 39.96875 25.039062 C 39.242188 23.515625 39.894531 18.796875 40.039062 16.621094 C 40.113281 15.167969 40.113281 13.28125 40.546875 13.066406 C 40.765625 12.917969 41.273438 13.644531 41.566406 13.574219 C 41.855469 13.5 42.144531 12.628906 42.289062 12.703125 C 42.507812 12.773438 42.433594 15.605469 41.925781 16.113281 C 41.566406 16.476562 40.546875 16.332031 40.183594 16.113281 C 39.894531 15.894531 39.824219 15.460938 39.75 14.953125 C 39.675781 14.152344 39.894531 12.410156 40.332031 11.902344 C 40.621094 11.539062 41.128906 11.394531 41.492188 11.46875 C 41.925781 11.539062 42.433594 11.976562 42.652344 12.484375 C 42.945312 13.210938 42.945312 14.804688 42.652344 15.53125 C 42.507812 15.96875 42.21875 16.402344 41.855469 16.476562 C 41.417969 16.621094 40.476562 16.332031 40.183594 15.894531 C 39.824219 15.460938 39.824219 14.007812 40.113281 13.644531 C 40.332031 13.355469 40.984375 13.28125 41.273438 13.5 C 41.925781 14.082031 41.347656 19.234375 40.910156 20.539062 C 40.695312 21.121094 40.546875 21.484375 40.183594 21.703125 C 39.675781 21.992188 38.445312 22.28125 37.933594 21.992188 C 37.5 21.773438 37.066406 20.832031 37.210938 20.394531 C 37.355469 19.960938 38.445312 19.304688 38.660156 19.453125 C 38.804688 19.597656 38.660156 20.757812 38.445312 20.902344 C 38.226562 21.046875 37.28125 20.613281 37.210938 20.324219 C 37.136719 20.03125 38.296875 19.523438 38.226562 19.304688 C 38.152344 19.089844 36.628906 19.742188 36.195312 19.304688 C 35.613281 18.726562 35.757812 15.53125 36.265625 14.660156 C 36.554688 14.082031 37.28125 13.644531 37.71875 13.71875 C 38.152344 13.789062 38.734375 14.371094 38.953125 15.023438 C 39.316406 16.039062 39.53125 18.652344 38.953125 19.378906 C 38.589844 19.886719 37.574219 20.175781 37.066406 19.816406 C 36.121094 19.160156 35.394531 13.425781 36.046875 12.195312 C 36.339844 11.613281 37.210938 11.175781 37.644531 11.324219 C 38.152344 11.46875 39.023438 12.773438 38.878906 13.210938 C 38.734375 13.574219 37.066406 14.007812 36.847656 13.789062 C 36.703125 13.644531 36.992188 12.917969 37.210938 12.703125 C 37.5 12.410156 38.371094 12.121094 38.515625 12.265625 C 38.660156 12.410156 38.296875 13.5 38.007812 13.71875 C 37.71875 13.933594 37.210938 13.933594 36.917969 13.71875 C 36.484375 13.425781 35.757812 11.976562 35.902344 11.46875 C 35.976562 11.105469 36.484375 10.742188 36.847656 10.667969 C 37.210938 10.597656 38.007812 11.25 38.007812 11.25 " clip-rule="nonzero"/></clipPath><clipPath id="7adbc3027a"><path d="M 33.070312 12.792969 L 39.460938 12.792969 L 39.460938 25.746094 L 33.070312 25.746094 Z M 33.070312 12.792969 " clip-rule="nonzero"/></clipPath><clipPath id="2c141f950e"><path d="M 37.210938 13.71875 C 36.628906 14.734375 37.71875 13.5 38.082031 13.644531 C 38.660156 13.863281 38.878906 16.039062 39.023438 17.492188 C 39.242188 19.453125 39.460938 23.082031 39.023438 24.316406 C 38.804688 24.894531 38.515625 25.183594 38.082031 25.402344 C 37.574219 25.621094 36.628906 25.695312 35.902344 25.402344 C 34.960938 24.96875 33.074219 22.644531 33.144531 22.574219 C 33.21875 22.5 34.742188 24.242188 35.613281 24.53125 C 36.410156 24.824219 37.644531 25.039062 38.152344 24.53125 C 39.023438 23.734375 38.589844 20.105469 38.371094 18.21875 C 38.226562 16.695312 37.066406 14.734375 37.355469 14.082031 C 37.5 13.789062 38.007812 13.574219 38.082031 13.644531 C 38.226562 13.789062 37.933594 15.242188 37.574219 15.386719 C 37.210938 15.53125 35.976562 14.878906 35.832031 14.445312 C 35.683594 14.082031 35.976562 13.28125 36.265625 13.066406 C 36.484375 12.847656 37.210938 12.847656 37.355469 12.992188 C 37.425781 13.136719 37.210938 13.71875 37.210938 13.71875 " clip-rule="nonzero"/></clipPath><clipPath id="1a169333d4"><path d="M 38.4375 13.125 L 42.96875 13.125 L 42.96875 20 L 38.4375 20 Z M 38.4375 13.125 " clip-rule="nonzero"/></clipPath><clipPath id="4c399c51dd"><path d="M 40.621094 13.789062 C 40.546875 16.257812 40.984375 15.96875 41.128906 15.75 C 41.273438 15.460938 41.203125 14.734375 40.984375 14.445312 C 40.765625 14.226562 40.113281 13.933594 39.824219 14.152344 C 39.386719 14.445312 39.242188 16.257812 39.386719 17.128906 C 39.53125 17.925781 39.96875 18.796875 40.546875 19.160156 C 41.128906 19.523438 42.945312 19.089844 42.945312 19.160156 C 42.945312 19.234375 40.839844 20.03125 40.183594 19.816406 C 39.605469 19.597656 39.242188 18.871094 38.953125 18.144531 C 38.589844 17.203125 38.445312 15.386719 38.660156 14.515625 C 38.804688 13.933594 39.167969 13.425781 39.605469 13.28125 C 40.113281 13.136719 41.203125 13.5 41.566406 13.933594 C 41.925781 14.371094 42.144531 15.316406 42 15.824219 C 41.925781 16.183594 41.566406 16.695312 41.203125 16.765625 C 40.765625 16.839844 39.824219 16.332031 39.605469 15.894531 C 39.316406 15.386719 39.605469 13.863281 39.894531 13.644531 C 40.039062 13.5 40.621094 13.789062 40.621094 13.789062 " clip-rule="nonzero"/></clipPath><clipPath id="935713bd5f"><path d="M 35.746094 12 L 39.328125 12 L 39.328125 15.25 L 35.746094 15.25 Z M 35.746094 12 " clip-rule="nonzero"/></clipPath><clipPath id="b5f611acbc"><path d="M 35.757812 13.425781 C 38.007812 11.976562 38.734375 11.976562 39.023438 12.195312 C 39.242188 12.339844 39.316406 12.628906 39.316406 12.917969 C 39.242188 13.5 38.152344 15.167969 37.789062 15.167969 C 37.574219 15.167969 37.28125 14.515625 37.28125 14.515625 C 37.28125 14.515625 37.789062 15.242188 37.71875 15.242188 C 37.71875 15.242188 37.136719 15.023438 37.136719 14.804688 C 37.066406 14.371094 38.734375 13.136719 38.589844 12.847656 C 38.445312 12.554688 35.757812 13.425781 35.757812 13.425781 " clip-rule="nonzero"/></clipPath></defs><g clip-path="url(#9c9075438f)"><path fill="#ff0000" d="M 21.148438 9.511719 C 20.910156 8.625 20.207031 7.925781 19.316406 7.6875 C 17.699219 7.253906 11.214844 7.253906 11.214844 7.253906 C 11.214844 7.253906 4.730469 7.253906 3.113281 7.6875 C 2.222656 7.925781 1.519531 8.625 1.28125 9.511719 C 0.847656 11.121094 0.847656 14.480469 0.847656 14.480469 C 0.847656 14.480469 0.847656 17.839844 1.28125 19.449219 C 1.519531 20.335938 2.222656 21.035156 3.113281 21.273438 C 4.730469 21.703125 11.214844 21.703125 11.214844 21.703125 C 11.214844 21.703125 17.699219 21.703125 19.316406 21.273438 C 20.207031 21.035156 20.910156 20.335938 21.148438 19.449219 C 21.582031 17.839844 21.582031 14.480469 21.582031 14.480469 C 21.582031 14.480469 21.582031 11.121094 21.148438 9.511719 Z M 21.148438 9.511719 " fill-opacity="1" fill-rule="nonzero"/></g><path fill="#ffffff" d="M 9.140625 17.574219 L 14.527344 14.480469 L 9.140625 11.382812 Z M 9.140625 17.574219 " fill-opacity="1" fill-rule="nonzero"/><path fill="#000000" d="M 25.960938 16.648438 L 23.632812 8.28125 L 25.664062 8.28125 L 26.480469 12.074219 C 26.6875 13.007812 26.839844 13.804688 26.941406 14.464844 L 27 14.464844 C 27.066406 13.992188 27.222656 13.199219 27.457031 12.085938 L 28.304688 8.28125 L 30.335938 8.28125 L 27.976562 16.648438 L 27.976562 20.664062 L 25.960938 20.664062 Z M 25.960938 16.648438 " fill-opacity="1" fill-rule="nonzero"/><path fill="#000000" d="M 30.945312 20.398438 C 30.535156 20.125 30.246094 19.695312 30.070312 19.113281 C 29.898438 18.535156 29.8125 17.761719 29.8125 16.796875 L 29.8125 15.484375 C 29.8125 14.511719 29.910156 13.726562 30.109375 13.136719 C 30.304688 12.546875 30.613281 12.117188 31.035156 11.847656 C 31.453125 11.574219 32.003906 11.441406 32.6875 11.441406 C 33.359375 11.441406 33.898438 11.578125 34.304688 11.851562 C 34.710938 12.128906 35.007812 12.558594 35.195312 13.144531 C 35.382812 13.730469 35.476562 14.511719 35.476562 15.484375 L 35.476562 16.796875 C 35.476562 17.761719 35.382812 18.535156 35.203125 19.121094 C 35.019531 19.707031 34.722656 20.136719 34.3125 20.40625 C 33.902344 20.675781 33.347656 20.8125 32.644531 20.8125 C 31.921875 20.8125 31.355469 20.675781 30.945312 20.398438 Z M 33.242188 18.980469 C 33.355469 18.6875 33.414062 18.207031 33.414062 17.535156 L 33.414062 14.71875 C 33.414062 14.070312 33.359375 13.59375 33.242188 13.292969 C 33.128906 12.992188 32.929688 12.84375 32.640625 12.84375 C 32.367188 12.84375 32.167969 12.992188 32.058594 13.292969 C 31.941406 13.59375 31.886719 14.070312 31.886719 14.71875 L 31.886719 17.535156 C 31.886719 18.207031 31.941406 18.6875 32.050781 18.980469 C 32.160156 19.277344 32.355469 19.425781 32.640625 19.425781 C 32.929688 19.425781 33.128906 19.277344 33.242188 18.980469 Z M 33.242188 18.980469 " fill-opacity="1" fill-rule="nonzero"/><path fill="#000000" d="M 42.082031 20.667969 L 40.484375 20.667969 L 40.304688 19.558594 L 40.261719 19.558594 C 39.824219 20.394531 39.171875 20.8125 38.304688 20.8125 C 37.699219 20.8125 37.253906 20.613281 36.96875 20.222656 C 36.679688 19.828125 36.539062 19.214844 36.539062 18.378906 L 36.539062 11.617188 L 38.585938 11.617188 L 38.585938 18.257812 C 38.585938 18.664062 38.628906 18.949219 38.71875 19.121094 C 38.804688 19.292969 38.953125 19.378906 39.164062 19.378906 C 39.339844 19.378906 39.511719 19.324219 39.675781 19.21875 C 39.839844 19.109375 39.957031 18.96875 40.039062 18.804688 L 40.039062 11.617188 L 42.082031 11.617188 Z M 42.082031 20.667969 " fill-opacity="1" fill-rule="nonzero"/><path fill="#000000" d="M 47.644531 9.917969 L 45.613281 9.917969 L 45.613281 20.664062 L 43.609375 20.664062 L 43.609375 9.917969 L 41.578125 9.917969 L 41.578125 8.28125 L 47.644531 8.28125 Z M 47.644531 9.917969 " fill-opacity="1" fill-rule="nonzero"/><path fill="#000000" d="M 52.578125 20.667969 L 50.980469 20.667969 L 50.800781 19.558594 L 50.757812 19.558594 C 50.320312 20.394531 49.667969 20.8125 48.800781 20.8125 C 48.195312 20.8125 47.75 20.613281 47.464844 20.222656 C 47.175781 19.828125 47.035156 19.214844 47.035156 18.378906 L 47.035156 11.617188 L 49.082031 11.617188 L 49.082031 18.257812 C 49.082031 18.664062 49.125 18.949219 49.214844 19.121094 C 49.300781 19.292969 49.449219 19.378906 49.660156 19.378906 C 49.835938 19.378906 50.007812 19.324219 50.171875 19.21875 C 50.335938 19.109375 50.453125 18.96875 50.535156 18.804688 L 50.535156 11.617188 L 52.578125 11.617188 Z M 52.578125 20.667969 " fill-opacity="1" fill-rule="nonzero"/><g clip-path="url(#9e7e37dd5e)"><path fill="#000000" d="M 59.351562 13.0625 C 59.230469 12.492188 59.027344 12.078125 58.753906 11.824219 C 58.476562 11.566406 58.09375 11.4375 57.609375 11.4375 C 57.234375 11.4375 56.882812 11.542969 56.558594 11.757812 C 56.230469 11.96875 55.980469 12.246094 55.800781 12.589844 L 55.785156 12.589844 L 55.785156 7.824219 L 53.8125 7.824219 L 53.8125 20.664062 L 55.503906 20.664062 L 55.710938 19.808594 L 55.757812 19.808594 C 55.914062 20.113281 56.152344 20.351562 56.46875 20.53125 C 56.785156 20.707031 57.136719 20.796875 57.523438 20.796875 C 58.214844 20.796875 58.722656 20.480469 59.050781 19.84375 C 59.375 19.210938 59.539062 18.21875 59.539062 16.871094 L 59.539062 15.4375 C 59.539062 14.425781 59.476562 13.632812 59.351562 13.0625 Z M 57.476562 16.753906 C 57.476562 17.414062 57.449219 17.929688 57.394531 18.304688 C 57.339844 18.679688 57.25 18.945312 57.121094 19.101562 C 56.992188 19.257812 56.820312 19.335938 56.601562 19.335938 C 56.433594 19.335938 56.277344 19.296875 56.132812 19.21875 C 55.992188 19.140625 55.875 19.019531 55.785156 18.863281 L 55.785156 13.730469 C 55.855469 13.484375 55.972656 13.28125 56.140625 13.125 C 56.308594 12.964844 56.492188 12.886719 56.691406 12.886719 C 56.898438 12.886719 57.058594 12.96875 57.171875 13.132812 C 57.285156 13.292969 57.363281 13.566406 57.410156 13.949219 C 57.453125 14.332031 57.476562 14.878906 57.476562 15.585938 Z M 57.476562 16.753906 " fill-opacity="1" fill-rule="nonzero"/></g><path fill="#000000" d="M 62.441406 17.277344 C 62.441406 17.859375 62.460938 18.292969 62.492188 18.582031 C 62.527344 18.875 62.601562 19.085938 62.710938 19.21875 C 62.820312 19.351562 62.984375 19.417969 63.210938 19.417969 C 63.519531 19.417969 63.730469 19.296875 63.84375 19.0625 C 63.957031 18.824219 64.019531 18.433594 64.027344 17.882812 L 65.792969 17.984375 C 65.804688 18.0625 65.808594 18.171875 65.808594 18.308594 C 65.808594 19.144531 65.578125 19.769531 65.121094 20.183594 C 64.660156 20.597656 64.011719 20.804688 63.171875 20.804688 C 62.160156 20.804688 61.453125 20.488281 61.050781 19.859375 C 60.644531 19.230469 60.441406 18.253906 60.441406 16.9375 L 60.441406 15.355469 C 60.441406 14 60.652344 13.007812 61.070312 12.382812 C 61.492188 11.757812 62.210938 11.445312 63.230469 11.445312 C 63.929688 11.445312 64.472656 11.570312 64.847656 11.828125 C 65.222656 12.085938 65.488281 12.480469 65.640625 13.023438 C 65.792969 13.566406 65.871094 14.3125 65.871094 15.269531 L 65.871094 16.816406 L 62.441406 16.816406 Z M 62.703125 13.011719 C 62.597656 13.140625 62.53125 13.347656 62.492188 13.640625 C 62.460938 13.929688 62.441406 14.371094 62.441406 14.960938 L 62.441406 15.609375 L 63.941406 15.609375 L 63.941406 14.960938 C 63.941406 14.378906 63.917969 13.941406 63.878906 13.640625 C 63.839844 13.339844 63.769531 13.128906 63.664062 13.003906 C 63.5625 12.882812 63.402344 12.816406 63.183594 12.816406 C 62.964844 12.820312 62.804688 12.882812 62.703125 13.011719 Z M 62.703125 13.011719 " fill-opacity="1" fill-rule="nonzero"/><g clip-path="url(#186cc4ab94)"><g clip-path="url(#be6c12dd39)"><path fill="#ffffff" d="M 32.710938 7.765625 L 45.992188 7.765625 L 45.992188 29.175781 L 32.710938 29.175781 Z M 32.710938 7.765625 " fill-opacity="1" fill-rule="nonzero"/></g></g><g clip-path="url(#7adbc3027a)"><g clip-path="url(#2c141f950e)"><path fill="#000000" d="M 30.242188 10.089844 L 41.925781 10.089844 L 41.925781 28.304688 L 30.242188 28.304688 Z M 30.242188 10.089844 " fill-opacity="1" fill-rule="nonzero"/></g></g><g clip-path="url(#1a169333d4)"><g clip-path="url(#4c399c51dd)"><path fill="#000000" d="M 35.757812 10.378906 L 45.847656 10.378906 L 45.847656 22.71875 L 35.757812 22.71875 Z M 35.757812 10.378906 " fill-opacity="1" fill-rule="nonzero"/></g></g><g clip-path="url(#935713bd5f)"><g clip-path="url(#b5f611acbc)"><path fill="#000000" d="M 32.855469 9.21875 L 42.21875 9.21875 L 42.21875 18.144531 L 32.855469 18.144531 Z M 32.855469 9.21875 " fill-opacity="1" fill-rule="nonzero"/></g></g></svg>